<svg width="129" height="58" viewBox="0 0 129 58" fill="none" xmlns="http://www.w3.org/2000/svg">
<path fill-rule="evenodd" clip-rule="evenodd" d="M66.5266 36.7135C67.1251 36.7135 67.7169 36.685 68.3008 36.6292C68.208 37.3819 68.1602 38.1484 68.1602 38.9262V57.0156H76.8614V38.9261L76.8547 38.9262C76.8547 33.4385 81.3128 28.9898 86.8122 28.9898C88.3959 28.9898 89.8933 29.3588 91.2227 30.0152V36.7135H99.7783V18.3626H99.795C99.795 17.0761 100.049 15.8021 100.542 14.6135C101.036 13.4249 101.759 12.345 102.671 11.4353C103.582 10.5255 104.665 9.8039 105.856 9.31158C107.047 8.81924 108.323 8.56584 109.613 8.56584C110.902 8.56584 112.179 8.81924 113.37 9.31158C114.561 9.8039 115.643 10.5255 116.555 11.4353C117.466 12.345 118.19 13.4249 118.683 14.6135C119.176 15.8021 119.43 17.0761 119.43 18.3626H119.447V36.7135H128.003V18.3626C128.003 15.9527 127.527 13.5665 126.603 11.34C126.432 10.9287 126.247 10.5244 126.047 10.1277C125.166 8.37705 124.009 6.77581 122.616 5.38657C120.909 3.68253 118.881 2.33082 116.65 1.40859C114.419 0.486372 112.028 0.0117188 109.613 0.0117188C107.198 0.0117188 104.806 0.486372 102.575 1.40859C100.344 2.33082 98.3167 3.68253 96.609 5.38657C95.2168 6.77581 94.0593 8.37703 93.1783 10.1277C92.9787 10.5244 92.7933 10.9287 92.6225 11.34C91.6983 13.5665 91.2227 15.9527 91.2227 18.3626V20.8372C89.8086 20.4951 88.3316 20.3138 86.8122 20.3138C86.1331 20.3138 85.4625 20.3501 84.8022 20.4206C84.8778 19.745 84.9166 19.0583 84.9166 18.3626C84.9166 8.22768 76.6831 0.0117188 66.5266 0.0117188C56.37 0.0117188 48.1365 8.22768 48.1365 18.3626C48.1365 19.0377 48.1731 19.7043 48.2443 20.3605C45.4045 20.158 42.5451 20.6155 39.8955 21.7107C38.8025 22.1625 37.7612 22.7161 36.784 23.3614V19.7283C36.784 8.73779 28.5505 1.37746 18.3939 1.37746C8.2374 1.37746 0.00390625 9.59342 0.00390625 19.7283C0.00390625 29.8633 8.2374 38.0792 18.3939 38.0792C19.03 38.0792 19.6632 38.0529 20.2895 37.9922V29.6677C19.6755 29.7837 19.0418 29.8443 18.3939 29.8443C12.7951 29.8443 8.2564 25.3152 8.2564 19.7283C8.2564 14.1415 12.7951 9.61239 18.3939 9.61239C23.8714 9.61239 28.3342 13.9472 28.5251 19.3664H28.5374V38.0792H28.5523C28.5461 38.2741 28.543 38.4693 28.543 38.6647C28.543 42.2942 29.6215 45.8422 31.6422 48.8599C33.663 51.8777 36.5352 54.2298 39.8955 55.6187C43.2558 57.0077 46.9534 57.3711 50.5207 56.663C51.2673 56.5148 52.0012 56.3211 52.7185 56.0839C55.4287 55.1875 57.9031 53.6701 59.9367 51.6408L53.8751 45.5921C52.5022 46.9622 50.7528 47.8952 48.8484 48.2733C46.9439 48.6513 44.9699 48.4573 43.176 47.7158C41.382 46.9743 39.8487 45.7186 38.7699 44.1075C37.6911 42.4965 37.1153 40.6024 37.1153 38.6647C37.1153 36.7271 37.6911 34.833 38.7699 33.2219C39.8487 31.6109 41.382 30.3552 43.176 29.6137C44.9699 28.8722 46.9439 28.6782 48.8484 29.0562C50.7528 29.4342 52.5022 30.3673 53.8751 31.7374L53.9042 31.7084C57.1978 34.8113 61.6395 36.7135 66.5266 36.7135ZM66.5266 8.56584C71.9487 8.56584 76.3442 12.952 76.3442 18.3626C76.3442 23.7732 71.9487 28.1594 66.5266 28.1594C61.1044 28.1594 56.7089 23.7732 56.7089 18.3626C56.7089 12.952 61.1044 8.56584 66.5266 8.56584Z" fill="#6066A3"/>
</svg>
